<svg width="22" height="20" viewBox="0 0 22 20" fill="none" xmlns="http://www.w3.org/2000/svg">
<path d="M8.15 1C8.15 0.8067 8.3067 0.65 8.5 0.65H13.5C13.6933 0.65 13.85 0.806701 13.85 1V6C13.85 6.1933 13.6933 6.35 13.5 6.35H8.5C8.3067 6.35 8.15 6.1933 8.15 6V1ZM17.15 16C17.15 15.8067 17.3067 15.65 17.5 15.65H20.5C20.6933 15.65 20.85 15.8067 20.85 16V19C20.85 19.1933 20.6933 19.35 20.5 19.35H17.5C17.3067 19.35 17.15 19.1933 17.15 19V16ZM9.15 16C9.15 15.8067 9.3067 15.65 9.5 15.65H12.5C12.6933 15.65 12.85 15.8067 12.85 16V19C12.85 19.1933 12.6933 19.35 12.5 19.35H9.5C9.3067 19.35 9.15 19.1933 9.15 19V16ZM1.15 16C1.15 15.8067 1.3067 15.65 1.5 15.65H4.5C4.6933 15.65 4.85 15.8067 4.85 16V19C4.85 19.1933 4.6933 19.35 4.5 19.35H1.5C1.3067 19.35 1.15 19.1933 1.15 19V16Z" stroke="white" stroke-width="1.3"/>
</svg>
