<svg width="24" height="24" viewBox="0 0 24 24" fill="none" xmlns="http://www.w3.org/2000/svg">
<path d="M9.15 3C9.15 2.8067 9.3067 2.65 9.5 2.65H14.5C14.6933 2.65 14.85 2.8067 14.85 3V8C14.85 8.1933 14.6933 8.35 14.5 8.35H9.5C9.3067 8.35 9.15 8.1933 9.15 8V3ZM18.15 18C18.15 17.8067 18.3067 17.65 18.5 17.65H21.5C21.6933 17.65 21.85 17.8067 21.85 18V21C21.85 21.1933 21.6933 21.35 21.5 21.35H18.5C18.3067 21.35 18.15 21.1933 18.15 21V18ZM10.15 18C10.15 17.8067 10.3067 17.65 10.5 17.65H13.5C13.6933 17.65 13.85 17.8067 13.85 18V21C13.85 21.1933 13.6933 21.35 13.5 21.35H10.5C10.3067 21.35 10.15 21.1933 10.15 21V18ZM2.15 18C2.15 17.8067 2.3067 17.65 2.5 17.65H5.5C5.6933 17.65 5.85 17.8067 5.85 18V21C5.85 21.1933 5.6933 21.35 5.5 21.35H2.5C2.3067 21.35 2.15 21.1933 2.15 21V18Z" stroke="white" stroke-width="1.3"/>
</svg>
