<svg width="24" height="24" viewBox="0 0 24 24" fill="none" xmlns="http://www.w3.org/2000/svg">
<path fill-rule="evenodd" clip-rule="evenodd" d="M8.58698 10.3261C8.58698 8.40511 10.1442 6.84784 12.0652 6.84784C13.9862 6.84784 15.5435 8.40511 15.5435 10.3261C15.5435 12.2471 13.9862 13.8044 12.0652 13.8044C10.1442 13.8044 8.58698 12.2471 8.58698 10.3261ZM9.97828 10.3261C9.97828 11.4787 10.9126 12.4131 12.0652 12.4131C13.2178 12.4131 14.1522 11.4787 14.1522 10.3261C14.1522 9.17351 13.2178 8.23914 12.0652 8.23914C10.9126 8.23914 9.97828 9.17351 9.97828 10.3261Z" fill="white"/>
<path fill-rule="evenodd" clip-rule="evenodd" d="M12 1.5C6.20101 1.5 1.5 6.20101 1.5 12C1.5 17.799 6.20101 22.5 12 22.5C17.799 22.5 22.5 17.799 22.5 12C22.5 6.20101 17.799 1.5 12 1.5ZM6.9 19.41C6.99443 19.1339 7.10461 18.8635 7.23 18.6C8.1745 16.8212 10.0349 15.7204 12.0487 15.7489C14.0625 15.7773 15.8911 16.9302 16.785 18.735C16.89 18.96 16.98 19.2 17.07 19.44C15.5727 20.4525 13.8075 20.9956 12 21C10.1783 20.9984 8.3999 20.4439 6.9 19.41ZM18.1239 18.0638C18.1943 18.1896 18.27 18.3249 18.27 18.435L18.345 18.42C20.965 15.8638 21.7759 11.9755 20.396 8.58523C19.0161 5.19492 15.7204 2.97805 12.06 2.97805C8.39963 2.97805 5.10389 5.19492 3.72401 8.58523C2.34412 11.9755 3.15501 15.8638 5.775 18.42C5.83444 18.2339 5.90971 18.0532 6 17.88C7.21751 15.6565 9.56274 14.2864 12.0976 14.3178C14.6324 14.3492 16.943 15.777 18.105 18.03C18.1112 18.0412 18.1175 18.0524 18.1239 18.0638Z" fill="white"/>
</svg>
