<svg width="10" height="6" viewBox="0 0 10 6" fill="none" xmlns="http://www.w3.org/2000/svg">
<path d="M0.403832 0.596199C0.599094 0.400937 0.915676 0.400937 1.11094 0.596199L5.35358 4.83884C5.54884 5.0341 5.54884 5.35068 5.35358 5.54595C5.15832 5.74121 4.84173 5.74121 4.64647 5.54595L0.403832 1.30331C0.20857 1.10804 0.20857 0.791462 0.403832 0.596199Z" fill="#3DBDF6"/>
<path d="M9.59622 0.596199C9.79148 0.791462 9.79148 1.10804 9.59622 1.30331L5.35358 5.54595C5.15832 5.74121 4.84173 5.74121 4.64647 5.54595C4.45121 5.35068 4.45121 5.0341 4.64647 4.83884L8.88911 0.5962C9.08437 0.400937 9.40096 0.400937 9.59622 0.596199Z" fill="#3DBDF6"/>
</svg>
