<svg width="24" height="24" viewBox="0 0 24 24" fill="none" xmlns="http://www.w3.org/2000/svg">
<path fill-rule="evenodd" clip-rule="evenodd" d="M9.19928 17.3355H19.7242V5.75H1.52421V17.3355H5.57433V19.7409L9.19928 17.3355ZM4.17433 22.35V18.7355H1.12421C0.571922 18.7355 0.124207 18.2878 0.124207 17.7355V5.35C0.124207 4.79772 0.571922 4.35 1.12421 4.35H20.1242C20.6765 4.35 21.1242 4.79772 21.1242 5.35V17.7355C21.1242 18.2878 20.6765 18.7355 20.1242 18.7355H9.62151L4.17433 22.35Z" fill="white"/>
<path d="M4.82421 5.56406H3.42421V3.35C3.42421 2.41112 4.18532 1.65 5.12421 1.65H22.1758C23.1147 1.65 23.8758 2.41112 23.8758 3.35V13.7598C23.8758 14.6987 23.1147 15.4598 22.1758 15.4598H19.9026V14.0598H22.1758C22.3415 14.0598 22.4758 13.9255 22.4758 13.7598V3.35C22.4758 3.18432 22.3415 3.05 22.1758 3.05H5.12421C4.95852 3.05 4.82421 3.18432 4.82421 3.35V5.56406Z" fill="white"/>
<path d="M3.12421 8.85C3.12421 8.57386 3.34806 8.35 3.62421 8.35H14.6242C14.9003 8.35 15.1242 8.57386 15.1242 8.85C15.1242 9.12614 14.9003 9.35 14.6242 9.35H3.62421C3.34806 9.35 3.12421 9.12614 3.12421 8.85Z" fill="white"/>
<path d="M3.12421 11.85C3.12421 11.5739 3.34806 11.35 3.62421 11.35H12.6242C12.9003 11.35 13.1242 11.5739 13.1242 11.85C13.1242 12.1261 12.9003 12.35 12.6242 12.35H3.62421C3.34806 12.35 3.12421 12.1261 3.12421 11.85Z" fill="white"/>
<path d="M3.12421 14.85C3.12421 14.5739 3.34806 14.35 3.62421 14.35H13.6242C13.9003 14.35 14.1242 14.5739 14.1242 14.85C14.1242 15.1261 13.9003 15.35 13.6242 15.35H3.62421C3.34806 15.35 3.12421 15.1261 3.12421 14.85Z" fill="white"/>
</svg>
