<svg width="21" height="20" viewBox="0 0 21 20" fill="none" xmlns="http://www.w3.org/2000/svg">
<mask id="path-1-inside-1" fill="white">
<rect x="7" width="7" height="7" rx="1"/>
</mask>
<rect x="7" width="7" height="7" rx="1" stroke="white" stroke-width="2.6" mask="url(#path-1-inside-1)"/>
<mask id="path-2-inside-2" fill="white">
<rect x="16" y="15" width="5" height="5" rx="1"/>
</mask>
<rect x="16" y="15" width="5" height="5" rx="1" stroke="white" stroke-width="2.6" mask="url(#path-2-inside-2)"/>
<rect x="10" y="8" width="1" height="6" rx="0.5" fill="white"/>
<rect x="2" y="11" width="1" height="3" rx="0.5" fill="white"/>
<path d="M3.00391 11.4945V11.9945H2.00391V11.4945C2.00391 10.6691 2.67303 10 3.49843 10H17.5001C18.3285 10 19.0001 10.6716 19.0001 11.5V12.3779H18.0001V11.5C18.0001 11.2239 17.7763 11 17.5001 11H3.49843C3.22531 11 3.00391 11.2214 3.00391 11.4945Z" fill="white"/>
<rect x="18" y="11" width="1" height="3" rx="0.5" fill="white"/>
<mask id="path-7-inside-3" fill="white">
<rect x="8" y="15" width="5" height="5" rx="1"/>
</mask>
<rect x="8" y="15" width="5" height="5" rx="1" stroke="white" stroke-width="2.6" mask="url(#path-7-inside-3)"/>
<mask id="path-8-inside-4" fill="white">
<rect y="15" width="5" height="5" rx="1"/>
</mask>
<rect y="15" width="5" height="5" rx="1" stroke="white" stroke-width="2.6" mask="url(#path-8-inside-4)"/>
</svg>
