<svg width="24" height="24" viewBox="0 0 24 24" fill="none" xmlns="http://www.w3.org/2000/svg">
<path fill-rule="evenodd" clip-rule="evenodd" d="M3.11307 2.56195C2.80207 2.56195 2.55007 2.82095 2.55007 3.13995V7.33395C2.55007 7.65295 2.80207 7.91295 3.11307 7.91295H20.8871C21.1971 7.91295 21.4501 7.65295 21.4501 7.33395V3.13995C21.4501 2.82095 21.1971 2.56195 20.8871 2.56195H3.11307ZM3.11307 9.32495C2.80207 9.32495 2.55007 9.58395 2.55007 9.90295V14.0969C2.55007 14.4159 2.80207 14.6749 3.11307 14.6749H20.8871C21.1971 14.6749 21.4501 14.4159 21.4501 14.0969V9.90295C21.4501 9.58395 21.1971 9.32495 20.8871 9.32495H3.11307ZM3.11307 16.0869C2.80207 16.0869 2.55007 16.3469 2.55007 16.6659V20.8599C2.55007 21.1789 2.80207 21.4379 3.11307 21.4379H20.8871C21.1971 21.4379 21.4501 21.1789 21.4501 20.8599V16.6659C21.4501 16.3469 21.1971 16.0869 20.8871 16.0869H3.11307ZM20.8871 22.8499H3.11307C2.61107 22.8499 1.92207 22.8499 1.52607 22.4439C1.14907 22.0569 1.15007 21.4229 1.15007 20.9139V16.6659C1.15007 16.1899 1.31907 15.7389 1.62207 15.3809C1.31907 15.0239 1.15007 14.5729 1.15007 14.0969V9.90295C1.15007 9.42695 1.31907 8.97595 1.62207 8.61895C1.31907 8.26095 1.15007 7.80995 1.15007 7.33395V3.13995C1.14907 2.60495 1.14807 2.02095 1.52707 1.63595C1.94307 1.21295 2.69907 1.14995 3.11307 1.14995H20.8871C21.3041 1.14995 22.0821 1.14995 22.5071 1.65695C22.8091 2.01895 22.8501 2.60995 22.8501 3.13995V7.33395C22.8501 7.80995 22.6821 8.26195 22.3791 8.61895C22.6821 8.97595 22.8501 9.42795 22.8501 9.90295V14.0969C22.8501 14.5729 22.6811 15.0239 22.3781 15.3819C22.6811 15.7389 22.8501 16.1899 22.8501 16.6659V20.8599C22.8501 21.2629 22.8501 21.8729 22.5031 22.2719C22.0501 22.7939 21.2221 22.8499 20.8871 22.8499Z" fill="white"/>
<path fill-rule="evenodd" clip-rule="evenodd" d="M5.14996 6.14995C5.70225 6.14995 6.14996 5.70223 6.14996 5.14995C6.14996 4.59766 5.70225 4.14995 5.14996 4.14995C4.59768 4.14995 4.14996 4.59766 4.14996 5.14995C4.14996 5.70223 4.59768 6.14995 5.14996 6.14995Z" fill="white"/>
<path fill-rule="evenodd" clip-rule="evenodd" d="M5.14996 13.1499C5.70225 13.1499 6.14996 12.7022 6.14996 12.1499C6.14996 11.5977 5.70225 11.1499 5.14996 11.1499C4.59768 11.1499 4.14996 11.5977 4.14996 12.1499C4.14996 12.7022 4.59768 13.1499 5.14996 13.1499Z" fill="white"/>
<path fill-rule="evenodd" clip-rule="evenodd" d="M5.14996 20.1499C5.70225 20.1499 6.14996 19.7022 6.14996 19.1499C6.14996 18.5977 5.70225 18.1499 5.14996 18.1499C4.59768 18.1499 4.14996 18.5977 4.14996 19.1499C4.14996 19.7022 4.59768 20.1499 5.14996 20.1499Z" fill="white"/>
<path d="M10.15 4.64995C10.15 4.37381 10.3738 4.14995 10.65 4.14995H19.65C19.9261 4.14995 20.15 4.37381 20.15 4.64995C20.15 4.92609 19.9261 5.14995 19.65 5.14995H10.65C10.3738 5.14995 10.15 4.92609 10.15 4.64995Z" fill="white"/>
<path d="M10.15 11.6499C10.15 11.3738 10.3738 11.1499 10.65 11.1499H19.65C19.9261 11.1499 20.15 11.3738 20.15 11.6499C20.15 11.9261 19.9261 12.1499 19.65 12.1499H10.65C10.3738 12.1499 10.15 11.9261 10.15 11.6499Z" fill="white"/>
<path d="M10.15 18.6499C10.15 18.3738 10.3738 18.1499 10.65 18.1499H19.65C19.9261 18.1499 20.15 18.3738 20.15 18.6499C20.15 18.9261 19.9261 19.1499 19.65 19.1499H10.65C10.3738 19.1499 10.15 18.9261 10.15 18.6499Z" fill="white"/>
</svg>
